<?xml version="1.0" encoding="utf-8"?>
<svg xmlns="http://www.w3.org/2000/svg" width="168" height="60" viewBox="0 0 168 60">
<defs>
    <style>
      .cls-1 {
        fill: #1c073e;
        fill-rule: evenodd;
      }
    </style>
  </defs>
  <path class="cls-1" d="M96.415,93a9.225,9.225,0,0,0-8.694,6.126V93.679H80v32.38h7.656V112.381c0-8.233,3.861-11.669,7.559-11.669a6.33,6.33,0,0,1,3.536,1.1l3.6-6.483A8.336,8.336,0,0,0,96.415,93Zm21.6,0c-10.965,0-15.9,8.557-15.9,16.984,0,8.719,5.255,16.725,16.415,16.725a16.94,16.94,0,0,0,13.3-5.835l-5.45-4.764a9.844,9.844,0,0,1-7.786,3.436c-5.093,0-7.429-2.852-8.11-7.1h22.254a12.868,12.868,0,0,0,.292-3.111C133.039,102.106,129.373,93,118.019,93Zm-7.526,13.742c0.746-4.051,2.79-7.1,7.461-7.1,3.439,0,6.229,1.718,7.04,5.056a7.084,7.084,0,0,1,.259,2.042h-14.76ZM157.075,93a12.289,12.289,0,0,0-9.5,4.44V93.679h-7.916v32.38h7.916v-17.73c0-5.64,2.79-8.039,7.234-8.039,4.055,0,6.2,3.079,6.2,7.326v18.443h7.916V106.611C168.916,99.837,165.574,93,157.075,93Zm29.55-13-7.786,5.64v8.039h-5.352v6.612h5.223v16.823c0,5.9,3.795,9.594,10.121,9.594a18.524,18.524,0,0,0,5.9-.972v-7.163a11.226,11.226,0,0,1-4.509,1.166c-2.076,0-3.6-.908-3.6-4.019V100.29h8.11V93.679h-8.11V80Zm52.681,13.679L231,116.173l-8.175-22.495h-8.694l12.684,31.5L220.847,140h8.629L248,93.679h-8.694Zm-31.142,23.758v-31.7L200.248,80v39.609c0,5.7,3.05,7.1,6.781,7.1a33.961,33.961,0,0,0,5.9-.648v-6.645a16.468,16.468,0,0,1-2.174.195C209.17,119.609,208.164,118.961,208.164,117.437Z" transform="translate(-80 -80)"/>
</svg>
